<?xml version="1.0"?>
<svg xmlns="http://www.w3.org/2000/svg" xmlns:xlink="http://www.w3.org/1999/xlink" xmlns:svgjs="http://svgjs.com/svgjs" version="1.1" width="512" height="512" x="0" y="0" viewBox="0 0 512 512" style="enable-background:new 0 0 512 512" xml:space="preserve" class=""><g>
<g xmlns="http://www.w3.org/2000/svg">
	<path d="M209.29,373.82C222.551,384.73,239.389,391,257,391h165v-30H316.944c6.816-9.057,11.644-19.692,13.795-31.261   C365.555,323.266,392,292.663,392,256c0-16.645-5.438-32.312-14.97-45H452v-30h-76.432C386.217,162.902,392,142.256,392,121   c0-22.232-5.983-43.079-16.402-61H452V30H351c-21.123-18.667-48.772-30-79-30c-56.176,0-103.914,39.671-116.388,93.446   C149.512,91.829,143.259,91,137,91c-41.355,0-75,33.645-75,75c0,16.3,5.443,32.071,15.27,45C67.443,223.928,62,239.7,62,256   c0,36.486,26.194,66.955,60.762,73.627L53.693,482H0v30h512v-30H160.265L209.29,373.82z M240.662,142.193l-27.324-12.386   l-28.482,62.835l-37.249-37.249l-21.213,21.213l45.229,45.229l-35.87,79.133C111.515,300.304,92,280.395,92,256   c0-12.963,5.527-24.933,15.564-33.707L120.484,211l-12.92-11.294C97.527,190.933,92,178.962,92,166c0-24.813,20.187-45,45-45   c7.967,0,15.685,2.2,22.938,6.54l21.179,12.671l1.495-24.635C185.523,67.59,224.788,30,272,30c49.626,0,90,40.822,90,91   c0,25.991-11.634,50.827-31.919,68.139l-18.669,15.933l22.693,9.347C351.051,221.397,362,237.719,362,256c0,24.813-20.187,45-45,45   h-15v15c0,24.813-20.187,45-45,45c-13.415,0-26.073-6.078-34.553-16.214L255.885,271H317v-30h-47.52l31.182-68.809l-27.324-12.383   L127.33,482H86.632L240.662,142.193z" fill="#ffffff" data-original="#000000" style="" class=""/>
	<rect x="482" y="30" width="30" height="30" fill="#ffffff" data-original="#000000" style="" class=""/>
	<rect x="482" y="181" width="30" height="30" fill="#ffffff" data-original="#000000" style="" class=""/>
	<rect x="422" y="271" width="30" height="30" fill="#ffffff" data-original="#000000" style="" class=""/>
	<rect x="452" y="361" width="30" height="30" fill="#ffffff" data-original="#000000" style="" class=""/>
	<rect x="422" y="91" width="30" height="30" fill="#ffffff" data-original="#000000" style="" class=""/>
</g>















</g></svg>
