<?xml version="1.0"?>
<svg xmlns="http://www.w3.org/2000/svg" xmlns:xlink="http://www.w3.org/1999/xlink" xmlns:svgjs="http://svgjs.com/svgjs" version="1.1" width="512" height="512" x="0" y="0" viewBox="0 0 512 512" style="enable-background:new 0 0 512 512" xml:space="preserve" class=""><g>
<g xmlns="http://www.w3.org/2000/svg">
	<path d="M471.052,120.281L263.957,90.436c-11.061-1.394-22.709,0.472-33.927,6.406L90,170.207V87.42   c17.459-6.192,30-22.865,30-42.42c0-24.813-20.187-45-45-45S30,20.187,30,45c0,19.555,12.541,36.228,30,42.42V300H30v182H0v30h150   v-30h-30V300H90v-80.207l139.956,73.329c0.002,0,0.003,0.001,0.005,0.002c0.002,0.001,0.068,0.036,0.068,0.036   c11.197,5.923,22.843,7.801,33.928,6.404l207.096-29.837C500.521,265.756,512,225.11,512,195   C512,164.525,500.34,124.22,471.052,120.281z M90,482H60V330h30V482z M75,60c-8.271,0-15-6.729-15-15s6.729-15,15-15   s15,6.729,15,15S83.271,60,75,60z M188.193,237.372L107.32,195l80.872-42.372C184.179,165.646,182,179.996,182,195   S184.179,224.354,188.193,237.372z M290.975,265.364l-30.882,4.45c-5.364,0.649-10.855-0.423-16.074-3.191   C225.167,256.621,212,227.169,212,195s13.167-61.621,32.02-71.622c5.218-2.769,10.709-3.84,16.073-3.191l30.882,4.45   C278.915,143.464,272,168.247,272,195S278.915,246.536,290.975,265.364z M349.256,256.966l-23.784,3.427   C311.233,247.027,302,221.833,302,195s9.233-52.027,23.472-65.393l23.784,3.427C338.122,150.783,332,172.314,332,195   S338.122,239.217,349.256,256.966z M432.371,244.135c0.136,0.273,0.283,0.526,0.421,0.795l-49.584,7.145   C369.864,237.852,362,216.907,362,195s7.864-42.852,21.208-57.074l49.584,7.145c-0.138,0.269-0.285,0.522-0.421,0.795   C425.683,159.24,422,176.69,422,195S425.683,230.76,432.371,244.135z M475.267,229.75c-3.832,8.13-7.463,10.151-8.267,10.25   c-0.519,0-3.962-1.614-7.797-9.282C454.625,221.563,452,208.544,452,195s2.625-26.563,7.203-35.718   c3.831-7.662,7.272-9.279,7.836-9.279c0.763,0.096,4.396,2.116,8.227,10.247C479.546,169.33,482,181.997,482,195   S479.546,220.67,475.267,229.75z" fill="#ffffff" data-original="#000000" style="" class=""/>
</g>















</g></svg>
